<svg width="1082" height="1082" xmlns="http://www.w3.org/2000/svg" xmlns:xlink="http://www.w3.org/1999/xlink" overflow="hidden"><defs><clipPath id="clip0"><rect x="419" y="-1" width="1082" height="1082"/></clipPath></defs><g clip-path="url(#clip0)" transform="translate(-419 1)"><path d="M420 180.004C420 80.5903 500.59 0 600.004 0L1320 0C1419.41-3.43746e-14 1500 80.5903 1500 180.004L1500 899.996C1500 999.41 1419.41 1080 1320 1080L600.004 1080C500.59 1080 420 999.41 420 899.996Z" fill-rule="evenodd"/><path d="M960 228.467 691.382 362.748 691.382 717.252 960 851.533 1228.62 717.252 1228.62 362.748ZM960 148 1298 316.966 1298 763.034 960 932 622 763.034 622 316.966Z" fill="#B6FF5D" fill-rule="evenodd"/></g></svg>