<svg width="24" height="24" xmlns="http://www.w3.org/2000/svg" xmlns:xlink="http://www.w3.org/1999/xlink" overflow="hidden"><path d="M11.975 21.475C9.54167 21.475 7.425 20.6667 5.625 19.05 3.825 17.4333 2.8 15.4167 2.55 13L5.25 13C5.48333 14.6833 6.23767 16.075 7.513 17.175 8.78767 18.275 10.275 18.825 11.975 18.825 13.875 18.825 15.4873 18.1623 16.812 16.837 18.1373 15.5123 18.8 13.9 18.8 12 18.8 10.1 18.1373 8.48733 16.812 7.162 15.4873 5.83733 13.875 5.175 11.975 5.175 10.9417 5.175 9.96267 5.4 9.038 5.85 8.11267 6.3 7.31667 6.93333 6.65 7.75L9.025 7.75 9.025 10 2.625 10 2.625 3.65 4.85 3.65 4.85 5.775C5.75 4.74167 6.81667 3.94167 8.05 3.375 9.28333 2.80833 10.5917 2.525 11.975 2.525 13.275 2.525 14.5043 2.775 15.663 3.275 16.821 3.775 17.825 4.45 18.675 5.3 19.525 6.15 20.2 7.154 20.7 8.312 21.2 9.47067 21.45 10.7 21.45 12 21.45 13.3 21.2 14.5293 20.7 15.688 20.2 16.846 19.525 17.85 18.675 18.7 17.825 19.55 16.821 20.225 15.663 20.725 14.5043 21.225 13.275 21.475 11.975 21.475ZM14.7 16.325 10.9 12.525 10.9 7 13.125 7 13.125 11.6 16.275 14.75Z" fill="#FFFFFF"/></svg>