<svg width="24" height="24" xmlns="http://www.w3.org/2000/svg" xmlns:xlink="http://www.w3.org/1999/xlink" overflow="hidden"><path d="M10.8 17.2 13.2 17.2 13.2 11 10.8 11ZM12 9.275C12.3667 9.275 12.671 9.154 12.913 8.912 13.1543 8.67067 13.275 8.36667 13.275 8 13.275 7.63333 13.1543 7.329 12.913 7.087 12.671 6.84567 12.3667 6.725 12 6.725 11.6333 6.725 11.3293 6.84567 11.088 7.087 10.846 7.329 10.725 7.63333 10.725 8 10.725 8.36667 10.846 8.67067 11.088 8.912 11.3293 9.154 11.6333 9.275 12 9.275ZM12 22.475C10.5333 22.475 9.16667 22.2 7.9 21.65 6.63333 21.1 5.52933 20.3543 4.588 19.413 3.646 18.471 2.9 17.3667 2.35 16.1 1.8 14.8333 1.525 13.4667 1.525 12 1.525 10.5333 1.8 9.16667 2.35 7.9 2.9 6.63333 3.646 5.529 4.588 4.587 5.52933 3.64567 6.63333 2.9 7.9 2.35 9.16667 1.8 10.5333 1.525 12 1.525 13.4667 1.525 14.8333 1.8 16.1 2.35 17.3667 2.9 18.471 3.64567 19.413 4.587 20.3543 5.529 21.1 6.63333 21.65 7.9 22.2 9.16667 22.475 10.5333 22.475 12 22.475 13.4667 22.2 14.8333 21.65 16.1 21.1 17.3667 20.3543 18.471 19.413 19.413 18.471 20.3543 17.3667 21.1 16.1 21.65 14.8333 22.2 13.4667 22.475 12 22.475ZM12 19.825C14.2 19.825 16.054 19.0707 17.562 17.562 19.0707 16.054 19.825 14.2 19.825 12 19.825 9.8 19.0707 7.94567 17.562 6.437 16.054 4.929 14.2 4.175 12 4.175 9.8 4.175 7.946 4.929 6.438 6.437 4.92933 7.94567 4.175 9.8 4.175 12 4.175 14.2 4.92933 16.054 6.438 17.562 7.946 19.0707 9.8 19.825 12 19.825Z" fill="#FFFFFF"/></svg>