<svg width="24" height="24" xmlns="http://www.w3.org/2000/svg" xmlns:xlink="http://www.w3.org/1999/xlink" overflow="hidden"><path d="M19.575 21.525 13.175 15.15C12.675 15.5 12.1043 15.7833 11.463 16 10.821 16.2167 10.125 16.325 9.375 16.325 7.475 16.325 5.86267 15.6623 4.538 14.337 3.21267 13.0123 2.55 11.4 2.55 9.5 2.55 7.6 3.21267 5.98733 4.538 4.662 5.86267 3.33733 7.475 2.675 9.375 2.675 11.2917 2.675 12.9083 3.33733 14.225 4.662 15.5417 5.98733 16.2 7.6 16.2 9.5 16.2 10.25 16.0957 10.9417 15.887 11.575 15.679 12.2083 15.3917 12.7667 15.025 13.25L21.45 19.675ZM9.375 13.675C10.5417 13.675 11.5293 13.2707 12.338 12.462 13.146 11.654 13.55 10.6667 13.55 9.5 13.55 8.33333 13.146 7.34567 12.338 6.537 11.5293 5.729 10.5417 5.325 9.375 5.325 8.225 5.325 7.24167 5.729 6.425 6.537 5.60833 7.34567 5.2 8.33333 5.2 9.5 5.2 10.6667 5.60833 11.654 6.425 12.462 7.24167 13.2707 8.225 13.675 9.375 13.675Z" fill="#FFFFFF"/></svg>